<svg aria-hidden="true" focusable="false" width="181" height="62" viewBox="0 0 181 62" fill="none" xmlns="http://www.w3.org/2000/svg">
    <path d="M64.8788 36.1173C62.2758 35.9421 56.0678 38.0441 52.0146 39.368C50.6989 37.45 48.9838 35.8298 46.9832 34.6149C48.6802 33.8558 50.3336 33.0057 51.936 32.0682C52.7259 32.7008 53.4427 33.417 54.0737 34.2039C53.7855 34.4955 53.5455 34.8296 53.3623 35.1943C52.9279 36.2251 53.9985 37.2929 54.9459 36.2419C55.2538 35.9051 55.3872 35.2314 54.7099 34.2208C55.052 33.857 55.4316 33.4864 55.7839 33.1361C56.0541 33.2978 57.0016 33.6616 57.7575 34.022C57.6541 34.2261 57.5738 34.4407 57.5181 34.6621C57.2992 35.6726 58.0311 36.2285 58.7152 36.0634C59.4951 35.8781 59.6319 34.8743 59.0401 34.2646C58.8731 34.1097 58.6869 33.9762 58.486 33.8671C58.5579 33.7694 58.6194 33.6784 58.7015 33.5706C59.1941 32.9407 59.5943 32.4556 59.9055 32.0649C60.2202 32.203 60.5896 32.3546 60.9795 32.5601C61.2634 32.7049 61.5028 32.8329 61.7252 32.9575C61.6592 33.0647 61.6031 33.1774 61.5576 33.2944C60.9829 34.7092 62.0877 35.0596 62.5426 35.0124C63.112 34.8944 63.4764 34.3442 63.3566 33.7835C63.3208 33.6156 63.2432 33.4592 63.131 33.3281C62.9491 33.1161 62.733 32.9352 62.4913 32.7925C62.8847 32.2602 63.3977 31.6573 63.8116 31.1857C64.3213 31.4383 64.9335 31.6775 65.5594 31.9503C65.515 32.6611 65.5971 33.2978 65.9494 33.6346C67.0302 34.6856 68.0016 33.1934 67.0884 32.2501C66.7842 31.9629 66.428 31.7343 66.0383 31.5764C66.2709 30.3637 66.8216 28.8074 66.8045 27.2174C66.7805 25.011 63.343 24.7381 57.8567 27.8912C55.9447 28.9927 54.0361 30.2155 51.912 31.4484C50.2531 30.101 47.982 28.5784 45.5604 27.8002C47.103 26.4797 48.8063 24.8291 50.4926 23.2324C51.3862 23.7045 52.2082 24.2975 52.9347 24.9942C52.213 25.9306 51.936 27.0153 52.8492 27.3219C53.7625 27.6284 54.6791 26.729 54.0464 25.6376C53.9124 25.4197 53.7553 25.2164 53.5778 25.0312C53.8309 24.6944 54.1285 24.2969 54.3987 23.8791C55.0143 24.1048 55.6813 24.2598 56.2902 24.5225C56.1507 24.8412 56.0853 25.1864 56.0986 25.5331C56.232 26.7492 58.0551 26.8637 57.9696 25.3917C57.9422 24.8998 57.4873 24.5495 56.9811 24.2834C57.2444 23.704 57.5796 23.0842 57.8328 22.5991C58.469 22.8012 59.2009 22.9663 59.7926 23.1381C59.6319 23.6838 59.5806 24.1217 59.7721 24.4417C60.3604 25.4523 62.1322 24.9975 61.4173 23.512C61.1841 23.1826 60.8495 22.9358 60.463 22.8079C60.4836 22.7675 60.4938 22.7271 60.5178 22.6833C60.6683 22.3464 60.9556 21.7805 61.2019 21.1674C61.7012 21.3156 62.228 21.447 62.7103 21.5548C62.8642 23.4513 63.6167 23.6332 64.2802 23.3873C64.8343 23.1852 65.3371 21.9894 63.8732 21.3392C63.6309 21.2359 63.3804 21.1526 63.1241 21.0899C63.1336 20.0707 63.2021 19.0529 63.3293 18.0413C63.6714 14.5515 60.0423 15.6833 57.7575 16.8354C55.7703 17.846 52.6064 20.5745 50.3626 22.626C50.2771 22.5822 50.1916 22.5317 50.1027 22.4879C48.2214 21.5615 45.6903 21.2887 43.5286 21.4773C43.6073 21.3022 43.6894 21.1203 43.7715 20.9282C44.028 20.3387 44.5308 19.1597 45.191 17.7281C46.282 17.7434 47.3576 17.9844 48.348 18.4355C48.2962 18.7077 48.2676 18.9838 48.2625 19.2608C48.2625 20.1231 48.7516 20.9451 49.6956 20.5072C49.9864 20.3758 50.862 19.6684 49.316 18.486C49.1845 18.3855 49.0436 18.2975 48.8953 18.2233C48.991 17.7719 49.1107 17.3036 49.1997 16.7882C49.8119 16.768 50.5165 16.7108 51.1322 16.6973C51.1286 16.7668 51.1286 16.8366 51.1322 16.9061C51.2553 18.0245 52.1412 18.678 52.9313 18.1256C53.3566 17.7567 53.3978 17.1181 53.0233 16.6993C52.9243 16.5885 52.8018 16.5004 52.6645 16.4413C52.3396 16.3051 51.9914 16.2308 51.6384 16.2223C51.676 15.7204 51.7684 15.05 51.8505 14.4302C52.2336 14.4302 52.685 14.4302 53.2186 14.41C53.4204 14.41 53.6017 14.41 53.7762 14.41C53.7723 14.4706 53.7723 14.5313 53.7762 14.5919C53.8856 15.7979 54.7441 16.165 55.4658 15.7979C56.1875 15.4307 56.0131 14.1338 54.4192 13.9822H54.2961C54.2961 13.6116 54.3234 13.1804 54.3405 12.6886C54.3405 12.4292 54.3405 12.1934 54.3405 11.9745C54.9038 11.9281 55.4643 11.8539 56.0199 11.7522C56.5706 13.1906 57.1076 13.3287 57.5352 13.2849C58.4142 13.1906 58.9033 11.678 57.4497 11.2637C57.0742 11.1863 56.6888 11.1669 56.3073 11.2064C55.7532 9.33013 55.4214 6.57124 54.1079 6.35228C51.6453 5.93457 48.9431 9.72089 47.3082 12.2305C46.5523 13.3893 45.6561 15.3364 44.7566 17.3474C41.05 17.1811 37.4288 18.4758 34.6937 20.9451C35.2205 18.8229 37.047 14.0091 40.546 13.1636C40.6162 13.4961 40.7312 13.8178 40.8881 14.1203C41.5345 15.2387 43.1421 14.7367 42.9403 13.6184C42.8343 13.0625 42.0647 12.6078 40.9599 12.6752C40.8858 12.2777 40.8378 11.876 40.8163 11.4726C40.8163 11.3917 40.8163 11.3277 40.8163 11.2536C41.3909 11.1862 42.051 11.0885 42.6633 11.038C42.8788 12.0958 43.2653 12.4225 43.8296 12.4831C45.061 12.6145 45.1978 10.9875 44.2093 10.6405C43.8656 10.5601 43.512 10.5283 43.1592 10.5462C43.06 9.97353 43.0019 9.33349 42.9643 8.79115C43.5936 8.67998 44.1443 8.5924 44.6163 8.54187C44.6851 8.80604 44.7898 9.05985 44.9276 9.29644C45.533 10.2295 46.9525 10.1824 46.8806 9.02021C46.8054 8.13427 45.8545 7.98605 45.6014 7.98605C45.4235 7.98605 45.232 7.98605 45.037 7.98605C45.0062 7.81425 44.9789 7.62898 44.9584 7.42012C44.9036 6.84746 44.8489 6.3489 44.7942 5.91772C45.2799 5.83351 45.7724 5.74929 46.2342 5.69203C46.3593 5.9922 46.5213 6.27615 46.7164 6.53755C47.5202 7.54813 48.7687 6.92494 48.6148 6.03899C48.5361 5.53033 48.2727 5.33159 47.6297 5.20695C47.2471 5.14822 46.8581 5.14142 46.4736 5.18673C46.0803 3.74834 45.6595 1.79455 45.0712 1.07703C44.4316 0.298885 42.588 0.0395005 39.5541 3.43506C36.7049 6.64871 35.1965 11.5197 34.663 14.3123C34.4547 15.376 34.304 16.4499 34.2115 17.5293C34.1189 16.4499 33.9682 15.376 33.76 14.3123C33.2264 11.5366 31.7214 6.6386 28.8654 3.43506C25.8349 0.0293949 23.9913 0.28878 23.3517 1.06693C22.7634 1.78444 22.3256 3.73823 21.9493 5.17663C21.5637 5.13139 21.1736 5.13819 20.7898 5.19684C20.157 5.32148 19.8868 5.5337 19.8082 6.02889C19.6645 6.91483 20.9027 7.52792 21.7065 6.52744C21.9006 6.26707 22.0592 5.98282 22.1785 5.68192C22.6403 5.73919 23.1328 5.8234 23.6219 5.90762C23.5638 6.3388 23.5125 6.83735 23.4577 7.41002C23.4372 7.61887 23.4098 7.80415 23.3756 7.97594C23.1841 7.97594 22.9925 7.97594 22.8147 7.97594C22.5616 7.97594 21.6107 8.141 21.556 9.02695C21.4876 10.1891 22.9241 10.2363 23.5125 9.30318C23.6508 9.06568 23.7555 8.81067 23.8237 8.54524C24.2957 8.59914 24.8498 8.68672 25.4758 8.79788C25.4347 9.34023 25.3766 9.98027 25.2808 10.5529C24.928 10.5349 24.5744 10.5666 24.2307 10.6472C23.232 10.9841 23.3791 12.6213 24.6104 12.4899C25.1748 12.4292 25.5579 12.1025 25.7802 11.0447C26.3856 11.0953 27.0491 11.193 27.6238 11.2603C27.6238 11.3344 27.6238 11.3984 27.6238 11.4793C27.6012 11.8829 27.5521 12.2846 27.4767 12.6819C26.3753 12.6145 25.6057 13.0693 25.4997 13.6251C25.2876 14.7435 26.8952 15.2454 27.5519 14.127C27.7088 13.8246 27.8239 13.5028 27.894 13.1703C31.3931 14.0159 33.223 18.8296 33.7497 20.9518C31.0182 18.4573 27.3883 17.1404 23.6664 17.2935C22.7668 15.2724 21.8707 13.3354 21.1148 12.1766C19.4764 9.67035 16.7743 5.88067 14.3116 6.30175C12.9981 6.52071 12.6629 9.2796 12.1123 11.1559C11.7308 11.1163 11.3453 11.1356 10.9698 11.2132C9.50591 11.6275 10.0019 13.14 10.8843 13.2343C11.3085 13.2781 11.8455 13.14 12.3996 11.7016C12.9553 11.8033 13.5158 11.8775 14.079 11.924C14.079 12.1429 14.079 12.3787 14.079 12.6381C14.079 13.1299 14.1166 13.5611 14.1235 13.9316H13.9969C12.4064 14.0832 12.2525 15.3869 12.9708 15.7473C13.6891 16.1078 14.5476 15.7473 14.6605 14.5414C14.6605 14.4942 14.6605 14.4268 14.6605 14.3595C14.8315 14.3595 15.0025 14.3595 15.2146 14.3595C15.7516 14.3595 16.1996 14.3864 16.5827 14.3797C16.6648 14.9995 16.7537 15.6698 16.7948 16.1718C16.4417 16.1795 16.0934 16.2538 15.7687 16.3907C15.2495 16.6145 15.0127 17.2103 15.2399 17.7217C15.3 17.8569 15.3894 17.9775 15.5019 18.075C16.2886 18.6275 17.1744 17.974 17.301 16.8556C17.301 16.7916 17.301 16.7175 17.301 16.6467C17.9201 16.6467 18.6213 16.7175 19.2335 16.7377C19.3225 17.2531 19.4422 17.7213 19.5379 18.1727C19.3911 18.2477 19.2514 18.3356 19.1207 18.4355C17.5746 19.6179 18.4366 20.3253 18.741 20.4566C19.685 20.8845 20.1878 20.0726 20.1776 19.2103C20.1661 18.9335 20.1364 18.6579 20.0886 18.3849C21.0789 17.9335 22.1546 17.6924 23.2457 17.6775C23.9058 19.1092 24.4052 20.2882 24.6651 20.8777C24.7472 21.0697 24.8293 21.2516 24.908 21.4268C22.7463 21.2382 20.2152 21.511 18.334 22.4374C18.2416 22.4812 18.1595 22.5317 18.074 22.5755C15.8302 20.524 12.6664 17.7954 10.6791 16.7849C8.39428 15.6193 4.74472 14.5009 5.1107 17.9908C5.233 19.0028 5.30037 20.0204 5.3125 21.0394C5.05517 21.1021 4.80349 21.1855 4.56001 21.2887C3.10977 21.9456 3.60914 23.1448 4.16325 23.3435C4.83023 23.5894 5.58271 23.4075 5.73663 21.511C6.20865 21.4032 6.74565 21.2718 7.24503 21.1236C7.47762 21.7367 7.76835 22.3026 7.92911 22.6395C7.94621 22.6833 7.95989 22.7237 7.977 22.7641C7.58696 22.8943 7.2507 23.1462 7.01928 23.4816C6.301 24.9672 8.07619 25.4085 8.6645 24.4114C8.85262 24.0745 8.80473 23.6534 8.64397 23.1077C9.24254 22.9359 9.96767 22.7709 10.6004 22.5688C10.857 23.0437 11.1888 23.6636 11.4555 24.2531C10.9459 24.5192 10.491 24.8695 10.4636 25.3613C10.3815 26.8334 12.2046 26.7088 12.338 25.5028C12.3479 25.1564 12.2826 24.8118 12.1465 24.4922C12.7519 24.2295 13.4223 24.0745 14.0379 23.8488C14.3082 24.2665 14.6057 24.6708 14.8554 25.0009C14.6809 25.1878 14.5251 25.3909 14.3902 25.6072C13.7575 26.7155 14.6399 27.6284 15.584 27.2915C16.528 26.9547 16.2202 25.9003 15.5019 24.9605C16.2296 24.2661 17.0514 23.6743 17.944 23.2021C19.6269 24.7988 21.3337 26.4494 22.8763 27.7699C20.4683 28.5346 18.1835 30.074 16.5246 31.4181C14.4005 30.1852 12.4885 28.9624 10.5799 27.8608C5.0936 24.7045 1.6561 24.9773 1.63215 27.1871C1.61505 28.7771 2.16232 30.3334 2.39832 31.5461C2.0092 31.7032 1.654 31.9319 1.35168 32.2198C0.448697 33.163 1.40641 34.6553 2.48725 33.6043C2.82929 33.2675 2.92165 32.6342 2.87718 31.92C3.49969 31.6472 4.11194 31.408 4.62842 31.1553C5.03545 31.6269 5.54851 32.2299 5.94528 32.7622C5.70332 32.9058 5.48624 33.0866 5.30224 33.2978C4.92862 33.7395 4.98929 34.3958 5.43776 34.7638C5.56958 34.8719 5.72616 34.9469 5.89397 34.9821C6.34889 35.0292 7.45367 34.6789 6.87905 33.2641C6.83049 33.1484 6.77451 33.0359 6.71145 32.9272C6.93035 32.8026 7.1732 32.6746 7.4571 32.5297C7.85728 32.3242 8.21642 32.1727 8.52768 32.0345C8.84236 32.4253 9.24254 32.9104 9.73508 33.5403C9.81717 33.6481 9.87874 33.7391 9.94715 33.8368C9.7463 33.955 9.5613 34.0976 9.39646 34.2612C8.80473 34.8709 8.94155 35.8748 9.7214 36.06C10.4055 36.2251 11.1374 35.6524 10.9151 34.6587C10.8609 34.4369 10.7806 34.2221 10.6757 34.0187C11.435 33.6582 12.3859 33.2944 12.6527 33.1327C12.9947 33.4696 13.3846 33.8536 13.7233 34.214C13.0392 35.2516 13.1794 35.8983 13.4907 36.2554C14.4347 37.3064 15.5087 36.2554 15.0743 35.2078C14.8911 34.8431 14.6511 34.5089 14.3629 34.2174C14.9936 33.4314 15.7092 32.7153 16.4972 32.0817C18.0967 33.018 19.7466 33.8682 21.4397 34.6284C19.4389 35.8441 17.7228 37.4642 16.4049 39.3815C12.3551 38.0576 6.14366 35.9556 3.54758 36.1308C0.742848 36.3228 0.469218 37.5725 0.688124 38.7212C0.879666 39.7318 1.6732 41.0793 2.12811 42.1875C1.55348 42.5614 1.10199 42.9556 1.04042 43.4339C0.859142 44.6062 2.19994 45.0441 2.75062 44.1514C2.99689 43.7506 2.9148 43.0903 2.68906 42.4435C3.17817 42.1067 3.81779 41.7698 4.64211 41.3151C4.92258 41.5576 5.22357 41.8102 5.52799 42.0831C5.8324 42.356 6.05815 42.5682 6.2668 42.7568C5.95986 42.9484 5.71158 43.2185 5.54851 43.5383C5.30114 44.0405 5.51393 44.6451 6.0238 44.8887C6.13858 44.9435 6.26275 44.9768 6.38993 44.9868C6.94908 44.9961 7.42067 44.5787 7.47078 44.0302C7.48144 43.6062 7.33971 43.1923 7.07059 42.8612C7.79571 42.4031 8.62345 42.0157 8.84236 41.881L8.95865 41.8001C9.34858 42.137 9.76244 42.4739 10.0292 42.7029C10.1592 42.8175 10.4055 43.0162 10.6586 43.2554C9.97451 43.8584 9.97451 44.266 10.0292 44.6028C10.2276 45.6134 11.3803 45.6538 11.8181 44.7847C12.0781 44.2626 11.8386 43.7236 11.4384 43.2419C11.996 42.8579 12.6527 42.5244 13.1179 42.2616C13.607 42.5985 14.144 42.9354 14.6468 43.2116C14.3526 44.2222 14.3047 44.9329 14.9238 45.3473C16.0491 46.1254 17.2052 44.6736 16.0936 43.663C15.8304 43.4276 15.5528 43.2082 15.2624 43.0061C15.5888 42.1004 15.9951 41.2246 16.4767 40.3887C16.5451 40.2674 16.6169 40.1461 16.6888 40.0282C18.8284 40.6688 21.004 41.1862 23.2046 41.5778C26.7208 42.1673 29.9052 42.0595 31.3452 40.2977C31.5215 41.2354 31.9625 42.1051 32.6176 42.8074C33.1922 43.4272 33.6642 43.8718 33.9344 44.1144C33.9344 45.3473 33.9344 46.1052 33.9344 46.1052C33.9758 46.9039 33.6828 47.6844 33.1238 48.2645C32.788 47.9022 32.3495 47.6475 31.8651 47.5335C31.0715 47.2842 29.4981 47.2977 29.3613 48.4094C29.204 49.6557 30.9929 49.8545 32.3542 49.3963C32.5984 49.3193 32.8292 49.2057 33.0383 49.0595C33.1798 49.2826 33.2946 49.5211 33.3803 49.7703C33.72 50.9202 33.9142 52.1071 33.9584 53.3039C33.9584 53.6004 33.9584 53.8867 33.9584 61.1595C33.9584 61.365 34.0165 61.6682 34.2012 61.6682C34.3859 61.6682 34.4475 61.365 34.4475 61.1595C34.4475 53.8867 34.4475 53.6004 34.4475 53.3039C34.4961 52.1019 34.696 50.9104 35.0426 49.7568C35.1284 49.5076 35.2431 49.2691 35.3847 49.046C35.5942 49.1915 35.8248 49.3051 36.0687 49.3829C37.4369 49.841 39.2189 49.6423 39.0616 48.3959C38.9213 47.291 37.3514 47.2775 36.5476 47.5268C36.0625 47.6392 35.6236 47.8941 35.2889 48.2578C34.7352 47.678 34.4472 46.8999 34.4919 46.1052C34.4919 46.1052 34.4919 45.3473 34.4919 44.1144C34.7587 43.8718 35.2342 43.4407 35.8088 42.8074C36.4626 42.1043 36.9034 41.2349 37.0812 40.2977C38.5177 42.0595 41.7021 42.1673 45.2183 41.5778C47.426 41.1832 49.6085 40.6625 51.7547 40.0181C51.8265 40.136 51.8983 40.2573 51.9633 40.3786C52.4457 41.2145 52.8532 42.0903 53.181 42.996C52.89 43.1973 52.6124 43.4167 52.3498 43.6529C51.2416 44.6635 52.3943 46.1187 53.5196 45.3372C54.125 44.9228 54.0908 44.1986 53.8001 43.2015C54.2926 42.9084 54.8262 42.5951 55.3256 42.2515C55.7874 42.5143 56.4441 42.8478 57.005 43.2318C56.6048 43.7135 56.3688 44.2424 56.6254 44.7746C57.0632 45.6437 58.2158 45.5898 58.4142 44.5927C58.4792 44.2559 58.4553 43.8381 57.7849 43.2453C58.038 43.0061 58.2842 42.8074 58.4142 42.6928C58.681 42.4537 59.0983 42.1269 59.4848 41.79L59.6011 41.8709C59.82 42.0056 60.6443 42.393 61.3729 42.8512C61.0974 43.183 60.9528 43.6017 60.9658 44.0302C61.0073 44.5809 61.4757 45.0054 62.0364 45.0003C62.6012 44.954 63.0209 44.4656 62.9739 43.9094C62.9634 43.7852 62.9297 43.664 62.8744 43.5518C62.7136 43.2305 62.4648 42.9599 62.1561 42.7703C62.3648 42.5716 62.611 42.3492 62.8984 42.0966C63.1857 41.8439 63.5003 41.5711 63.7808 41.3285C64.6086 41.7665 65.2448 42.137 65.7373 42.457C65.5115 43.1038 65.426 43.764 65.6723 44.1649C66.2196 45.0576 67.5638 44.6197 67.3825 43.4474C67.3107 42.9691 66.8729 42.5749 66.2982 42.201C66.7531 41.086 67.5467 39.7453 67.7382 38.7347C67.9537 37.586 67.6835 36.3363 64.8822 36.1442L64.8788 36.1173ZM54.0806 36.4373C53.7385 36.3767 53.6325 36.1476 53.7112 35.6625C53.8327 35.2818 54.0449 34.9353 54.3303 34.652C54.3551 34.6889 54.3779 34.7272 54.3987 34.7665C55.0827 36.1712 54.3987 36.5047 54.0806 36.4508V36.4373ZM55.199 31.2294C55.4898 30.3772 56.7177 30.5894 56.4372 31.5663C56.2756 31.9016 56.049 32.2025 55.7702 32.4522C55.3495 32.1625 55.0143 31.7785 55.199 31.2227V31.2294ZM58.6878 34.5442C59.5874 35.5177 58.4758 35.9724 58.1543 35.703C57.8909 35.4806 57.6788 35.1269 58.2158 34.2241C58.388 34.3147 58.5468 34.4281 58.6878 34.561V34.5442ZM59.7653 31.3372C59.3138 31.0678 58.9068 30.7242 58.9307 30.3772C58.9888 29.4946 59.9568 29.1578 60.2339 30.0403C60.3502 30.4075 60.1107 30.8623 59.7653 31.3305V31.3372ZM62.8436 34.5509C62.5939 34.8878 61.7662 34.7261 61.8654 33.8233C61.9189 33.5978 62.0191 33.3857 62.1595 33.2001C63.0044 33.7323 63.1857 34.1029 62.8436 34.5475V34.5509ZM63.6748 30.5052C63.1822 30.2121 62.8026 29.8315 63.0215 29.3161C63.4696 28.3055 64.5128 28.7906 64.3452 29.5115C64.1806 29.886 63.9489 30.2284 63.6611 30.522L63.6748 30.5052ZM66.353 32.2973C67.7485 32.998 66.9755 34.2545 66.1853 33.3517C65.9283 32.984 65.8356 32.5286 65.9288 32.0918L66.353 32.2973ZM56.663 29.1544C61.5439 26.1428 66.8968 24.9706 66.1853 28.5885C66.0554 29.2622 65.7373 30.3435 65.5936 31.3608L64.9335 31.0913C64.7864 31.0307 64.4649 30.9162 64.1194 30.7545C64.2836 30.5591 64.4102 30.4176 64.4615 30.3502C65.0087 29.5755 64.9814 28.6659 63.8937 28.4537C63.0488 28.2752 62.3921 29.2015 62.4742 29.8517C62.5289 30.2795 62.8573 30.6029 63.3362 30.8993C62.8881 31.4114 62.3819 31.9739 62.0056 32.4826C61.6225 32.2737 61.2087 32.075 60.8427 31.8897C60.7469 31.8392 60.5007 31.7381 60.2373 31.6034C60.7914 30.8791 60.9214 30.5321 60.7025 29.9898C60.4779 29.4251 59.831 29.1466 59.2575 29.3678C58.8521 29.5241 58.5763 29.8986 58.551 30.3267C58.4108 31.1789 58.7255 31.5057 59.3753 31.8291C59.1325 32.1188 58.8828 32.4051 58.6913 32.6678C58.4997 32.9306 58.2295 33.2371 58.0072 33.5942C57.542 33.3584 57.07 33.1462 56.875 33.0418C56.7519 32.9744 56.4817 32.8733 56.191 32.7049C56.5173 32.4255 56.7796 32.0811 56.9605 31.6943C57.2718 30.1986 55.5924 30.1313 55.0451 30.9128C54.3405 31.9234 54.9186 32.5432 55.3872 32.8767C55.0759 33.1799 54.7407 33.5066 54.4294 33.8266C54.1177 33.4384 53.7745 33.0757 53.4033 32.742C53.1092 32.4624 52.7534 32.1491 52.3772 31.8223C54.491 30.5827 56.1841 29.4643 56.6835 29.1611L56.663 29.1544ZM63.2951 21.6491C64.9814 22.0129 64.6291 23.3772 63.6611 23.037C63.3191 22.9191 63.1788 22.3431 63.1241 21.6154L63.2951 21.6491ZM53.1468 27.113C52.4969 27.0692 52.6611 26.1294 53.1878 25.4624C53.2152 25.4321 53.2494 25.3849 53.2802 25.3479C53.3608 25.4402 53.4329 25.5394 53.4957 25.6443C53.9608 26.4561 53.6804 27.1501 53.1536 27.113H53.1468ZM54.6142 22.0433C54.5329 22.4161 54.3982 22.7757 54.214 23.1111C53.6906 22.8416 53.2768 22.4845 53.3486 22.0129C53.547 20.743 54.7407 21.4032 54.6142 22.0433ZM57.4086 25.23C58.0551 25.9508 56.9503 26.5774 56.5911 25.7824C56.5022 25.5769 56.5911 25.1862 56.7724 24.7247C57.0083 24.8617 57.2226 25.0319 57.4086 25.23ZM57.9832 21.0293C57.8885 21.3154 57.7659 21.5917 57.6173 21.8546C56.9913 21.6121 56.5398 21.2718 56.663 20.6015C56.8716 19.4427 58.2535 20.0187 57.9832 21.0293ZM60.6443 23.3873C61.6704 23.9297 61.1129 24.8965 60.5451 24.6337C60.162 24.4552 60.0663 23.96 60.2852 23.2357C60.4025 23.2787 60.5167 23.3294 60.6272 23.3873H60.6443ZM60.9077 20.0187C60.8598 20.1669 60.8051 20.3084 60.7572 20.4499C60.2168 20.2444 59.8234 19.9648 59.7653 19.5101C59.6148 18.2468 61.5063 18.1828 60.9077 20.0187ZM54.0327 19.948C57.0392 17.3946 63.2951 14.1304 62.7786 18.7892C62.693 19.5024 62.653 20.2202 62.6589 20.9383C62.2177 20.8373 61.7628 20.7463 61.3421 20.6352C61.6191 19.7189 61.6841 18.7993 60.9077 18.4119C59.6011 17.7584 59.1462 19.5741 59.5977 20.3219C59.8613 20.6125 60.2045 20.8219 60.5862 20.9249C60.3536 21.538 60.1244 22.0904 59.9466 22.5721C59.519 22.4273 59.1017 22.3161 58.8383 22.2353C58.575 22.1544 58.339 22.0904 58.0927 22.0163C58.1085 21.9881 58.1222 21.9588 58.1337 21.9287C58.4758 21.1944 58.8383 20.113 57.5865 19.7257C56.6493 19.4359 55.9618 20.6891 56.4064 21.6794C56.6189 22.0033 56.9414 22.2421 57.3163 22.3532C57.0358 22.8686 56.7143 23.4412 56.4714 23.9802C56.2286 23.8825 55.9994 23.7983 55.8284 23.7309C55.5821 23.6299 55.1443 23.4985 54.6826 23.3132C54.8146 23.098 54.929 22.8727 55.0246 22.6395C55.2777 21.9658 55.1511 20.9922 54.084 20.9754C52.9518 20.9754 52.6371 22.5856 53.157 23.0976C53.3816 23.3077 53.6392 23.4806 53.9198 23.6097C53.6995 23.949 53.462 24.2773 53.2084 24.5933C52.4994 23.917 51.7091 23.3288 50.8551 22.8416C51.9531 21.8007 53.0305 20.7969 54.0464 19.9345L54.0327 19.948ZM55.2093 15.5722C54.5252 15.6261 54.3337 15.2353 54.2995 14.4032C55.9105 14.6357 55.6232 15.5418 55.2093 15.5722ZM57.6309 11.7488C58.1371 11.9644 58.2603 13.0625 57.3881 12.8571C56.9879 12.7627 56.704 12.281 56.4714 11.6241C56.8622 11.5597 57.2635 11.6029 57.6309 11.7488ZM49.1997 18.9104C49.6477 19.2473 49.9898 20.0625 49.4972 20.2579C48.9363 20.487 48.6079 19.921 48.7482 18.7993C48.7482 18.742 48.7721 18.6847 48.7824 18.6241C48.95 18.7252 49.0902 18.8195 49.1997 18.897V18.9104ZM48.5395 16.2391C47.6365 16.2627 47.0927 15.1275 47.7084 14.6559C48.0744 14.383 48.7755 14.7536 48.7892 15.4071C48.7929 15.6824 48.7711 15.9576 48.7242 16.229H48.5395L48.5395 16.2391ZM51.4092 13.167C51.4092 13.3388 51.3682 13.5678 51.3374 13.8137C51.0503 13.8197 50.7658 13.7597 50.5063 13.6386C49.8769 13.1535 50.0855 12.153 50.5063 12.0856C50.927 12.0183 51.4811 12.2608 51.4195 13.167L51.4092 13.167ZM52.1036 16.6703C52.9211 16.8118 53.075 17.216 52.9895 17.5024C52.7432 18.3378 51.6213 17.7516 51.5974 16.6333C51.7668 16.6339 51.9359 16.6463 52.1036 16.6703H52.1036ZM52.0146 7.57508C54.6073 6.27479 55.1546 8.55534 55.5924 10.2902C55.6745 10.627 55.76 10.8999 55.8387 11.1559C55.329 11.2031 54.8125 11.2738 54.32 11.321C54.2277 9.87584 53.8138 9.55919 53.3418 9.4615C52.7724 9.33251 52.1884 9.6096 51.936 10.1285C51.6829 10.654 51.8812 11.988 53.5401 11.9576C53.6154 11.9576 53.677 11.9576 53.7522 11.9576C53.7727 12.7055 53.7522 13.3994 53.7522 13.9081C53.1263 13.8845 52.4627 13.8845 51.8915 13.8744C51.9481 13.5281 51.971 13.1773 51.9599 12.8267C51.9131 12.2108 51.3682 11.7488 50.7428 11.7949C50.692 11.7986 50.6416 11.8057 50.5918 11.8162C49.6785 11.9846 49.5656 13.396 50.1676 13.999C50.4835 14.2505 50.88 14.3831 51.2861 14.3729C51.2108 14.9557 51.1356 15.5991 51.1117 16.1617C50.4857 16.1617 49.8153 16.1953 49.251 16.229C49.2681 16.0438 49.2954 15.8619 49.2988 15.6564C49.3228 14.3392 48.2727 13.9721 47.6502 14.4235C46.4907 15.2589 47.3287 16.6265 48.2556 16.7377C48.3753 16.7377 48.5053 16.7579 48.649 16.7613C48.5737 17.1588 48.4814 17.5731 48.4027 17.9773C47.4148 17.6133 46.3772 17.3964 45.3243 17.3339C47.0106 13.7363 49.6272 8.81136 52.0044 7.61887L52.0146 7.57508ZM53.7146 11.4153C53.5743 11.4153 53.4444 11.4153 53.3315 11.4153C52.384 11.358 52.0933 10.4047 52.3054 10.0847C52.6098 9.64004 53.5436 9.50192 53.6735 10.9403C53.6735 11.0986 53.6941 11.2536 53.7043 11.4119L53.7146 11.4153ZM42.417 14.3359C42.0408 14.6087 41.3909 14.4369 41.0488 13.0895C42.1434 13.0356 42.9814 13.935 42.417 14.3359ZM44.288 11.2064C44.931 11.6107 44.5376 12.3551 43.7373 12.0385C43.5047 11.9408 43.3371 11.5433 43.2174 11.0279C43.5847 10.9938 43.9545 11.0578 44.288 11.2132V11.2064ZM46.607 9.09432C46.6685 9.67709 45.639 10.1285 45.1499 8.50819C46.046 8.46439 46.5591 8.61261 46.607 9.09432ZM48.2385 5.96489C48.6285 6.55439 47.3116 7.28875 46.6309 5.62802C47.3937 5.56739 47.9991 5.62802 48.2385 5.96489ZM20.1912 5.96489C20.4136 5.62802 21.0327 5.57412 21.7954 5.62802C21.1113 7.28201 19.7979 6.54765 20.1912 5.96489ZM21.8091 9.07074C21.857 8.58903 22.37 8.44081 23.2628 8.4846C22.7736 10.1049 21.7441 9.65351 21.8091 9.07074H21.8091ZM24.6754 12.0284C23.8716 12.345 23.4817 11.6006 24.1247 11.1963C24.4588 11.0432 24.8286 10.9816 25.1953 11.0178C25.0756 11.5399 24.908 11.9374 24.6754 12.0284ZM25.9957 14.3258C25.4416 13.9249 26.283 13.0255 27.3638 13.0794C27.0218 14.4268 26.3377 14.5986 25.9957 14.3258ZM11.0417 12.8705C10.1729 13.076 10.2926 11.9778 10.8022 11.7623C11.1698 11.6165 11.571 11.5734 11.9618 11.6376C11.7258 12.2945 11.4453 12.7762 11.0417 12.8705ZM13.2239 15.5856C12.8066 15.5553 12.5193 14.6492 14.1303 14.4167C14.0995 15.2353 13.908 15.6395 13.2239 15.5856ZM15.43 17.5259C15.3445 17.2396 15.5019 16.8522 16.3194 16.6939C16.487 16.6699 16.6562 16.6575 16.8256 16.6568C16.7845 17.7752 15.6763 18.3614 15.43 17.5259H15.43ZM17.0069 13.1905C16.9453 12.2844 17.5131 12.0385 17.9201 12.1092C18.3271 12.18 18.5392 13.1771 17.9201 13.6622C17.6594 13.7832 17.3737 13.8431 17.0855 13.8373C17.0582 13.5914 17.0308 13.3624 17.0171 13.1906L17.0069 13.1905ZM18.9291 20.2646C18.4366 20.0558 18.7786 19.2237 19.2267 18.9172C19.3361 18.8397 19.4764 18.7454 19.644 18.6443C19.644 18.705 19.6679 18.7622 19.6748 18.8195C19.8184 19.9278 19.4901 20.5038 18.9291 20.2781V20.2646ZM19.6337 15.4273C19.6337 14.7738 20.352 14.4167 20.718 14.6761C21.3371 15.1477 20.7864 16.2829 19.8868 16.2594H19.7021C19.6542 15.988 19.6313 15.7129 19.6337 15.4374L19.6337 15.4273ZM20.0339 17.9807C19.9552 17.5765 19.8663 17.1621 19.7876 16.7646C19.9313 16.7646 20.0647 16.7646 20.181 16.7411C21.1079 16.6299 21.9459 15.2622 20.7864 14.4268C20.1536 13.9687 19.1138 14.3426 19.1412 15.6597C19.1412 15.8652 19.172 16.0471 19.1891 16.2324C18.6247 16.1987 17.9509 16.1549 17.3249 16.165C17.3044 15.6025 17.2258 14.9591 17.1505 14.3763C17.5566 14.3864 17.9531 14.2539 18.269 14.0024C18.8812 13.3994 18.7615 11.9812 17.8483 11.8195C17.2348 11.6913 16.6319 12.0772 16.5017 12.6814C16.4911 12.7304 16.4839 12.7801 16.4801 12.8301C16.4692 13.1805 16.4909 13.5312 16.5451 13.8777C15.9773 13.8777 15.3138 13.8777 14.6878 13.9114C14.6878 13.4028 14.6878 12.7088 14.6878 11.961C14.7596 11.961 14.8246 11.961 14.8999 11.961C16.5588 11.9913 16.7572 10.6574 16.504 10.1319C16.2416 9.62475 15.66 9.36137 15.0983 9.49519C14.6228 9.59288 14.2124 9.90952 14.1166 11.3547C13.6412 11.3075 13.111 11.2368 12.598 11.1896C12.6835 10.9336 12.7621 10.6473 12.8476 10.3239C13.2855 8.58566 13.8122 6.30175 16.4083 7.6054C18.782 8.79788 21.4021 13.7127 23.0883 17.3205C22.0355 17.3837 20.9981 17.6005 20.01 17.9639L20.0339 17.9807ZM14.6947 11.4018C14.6947 11.2435 14.7152 11.0885 14.7289 10.9302C14.8554 9.49182 15.7892 9.62993 16.097 10.0746C16.3262 10.4114 16.0355 11.3479 15.0709 11.4052C14.958 11.4052 14.8246 11.4052 14.6844 11.4052L14.6947 11.4018ZM4.76524 23.0303C3.79726 23.3671 3.44497 22.0197 5.13122 21.6424L5.29882 21.6087C5.24751 22.3363 5.09702 22.9124 4.76524 23.0303ZM7.50156 20.0221C6.90299 18.1862 8.79447 18.2502 8.64055 19.5134C8.58582 19.9682 8.18906 20.2478 7.65206 20.4533C7.60075 20.3118 7.54944 20.1703 7.50156 20.0221ZM7.88122 24.6506C7.31344 24.9133 6.76959 23.9465 7.78203 23.4042C7.89251 23.3462 8.00678 23.2956 8.12407 23.2526C8.34298 23.9869 8.24721 24.472 7.86412 24.6506H7.88122ZM10.4226 21.0327C10.1558 20.0221 11.5342 19.4461 11.7463 20.6049C11.8694 21.2786 11.4042 21.6154 10.792 21.858C10.6411 21.5958 10.5173 21.3193 10.4226 21.0327ZM11.8181 25.7858C11.459 26.5976 10.3542 25.9542 11.0006 25.2333C11.1854 25.0354 11.3986 24.8652 11.6334 24.728C11.8147 25.1895 11.907 25.5803 11.8181 25.7858ZM13.7848 22.0466C13.6617 21.4066 14.8554 20.7463 15.0538 22.0163C15.1222 22.4879 14.7118 22.845 14.1884 23.1145C14.0034 22.7791 13.8675 22.4196 13.7848 22.0466ZM15.2488 27.1164C14.7118 27.1534 14.4347 26.4427 14.9067 25.6477C14.9733 25.5444 15.0464 25.4454 15.1256 25.3512C15.1564 25.3883 15.1906 25.4355 15.218 25.4658C15.7413 26.1395 15.9021 27.0726 15.259 27.1164H15.2488ZM15.2043 24.6101C14.9888 24.3339 14.7323 24.0004 14.4963 23.6265C14.7774 23.4983 15.0351 23.3253 15.259 23.1145C15.7789 22.6025 15.4642 20.9788 14.3321 20.9923C13.2649 20.9923 13.135 22.0028 13.3881 22.6563C13.4852 22.8889 13.5995 23.1141 13.7301 23.3301C13.2786 23.5153 12.8305 23.6467 12.5843 23.7478C12.4133 23.8151 12.1841 23.8994 11.9412 23.997C11.695 23.4581 11.3769 22.8854 11.093 22.37C11.4693 22.2599 11.7932 22.021 12.0062 21.6963C12.4509 20.7059 11.7634 19.4528 10.8228 19.7425C9.5709 20.1299 9.9403 21.2112 10.2755 21.9456L10.32 22.0331C10.0737 22.1073 9.81717 22.1746 9.5709 22.2521C9.32463 22.3296 8.88682 22.4408 8.46269 22.589C8.28825 22.1073 8.05908 21.5548 7.8265 20.9417C8.20753 20.8396 8.54994 20.63 8.81157 20.3387C9.26306 19.5909 8.81157 17.7752 7.50498 18.4287C6.73881 18.8161 6.79353 19.7358 7.07059 20.652C6.64988 20.7632 6.19155 20.8541 5.75373 20.9552C5.75966 20.237 5.71967 19.5192 5.63402 18.806C5.11754 14.1472 11.3735 17.4114 14.38 19.9648C15.4061 20.8272 16.4767 21.831 17.5712 22.8719C16.7174 23.3609 15.9261 23.949 15.2146 24.6236L15.2043 24.6101ZM2.21704 33.382C1.42693 34.2848 0.653915 33.0283 2.04602 32.3276L2.47357 32.1221C2.56516 32.559 2.47256 33.0137 2.21704 33.382ZM4.0709 29.5586C3.9033 28.8377 4.94652 28.3392 5.39459 29.3632C5.61692 29.8618 5.23041 30.2593 4.74471 30.5557C4.45705 30.262 4.22534 29.9197 4.06064 29.5451L4.0709 29.5586ZM5.55877 34.5981C5.21673 34.15 5.40143 33.7795 6.24285 33.2506C6.38335 33.4362 6.48348 33.6484 6.537 33.8738C6.6362 34.7766 5.80846 34.9383 5.55535 34.6014L5.55877 34.5981ZM8.18564 30.0504C8.46269 29.1611 9.43067 29.498 9.49223 30.3873C9.51276 30.7242 9.10573 31.061 8.65765 31.3473C8.31562 30.8791 8.06935 30.4243 8.18564 30.0572V30.0504ZM10.2652 35.7299C9.94715 35.9994 8.83552 35.5446 9.73508 34.5711C9.87709 34.4468 10.0359 34.3425 10.2071 34.2612C10.7441 35.164 10.5286 35.5177 10.2652 35.74V35.7299ZM12.6595 32.4893C12.3751 32.2407 12.1427 31.9397 11.9754 31.6034C11.695 30.6197 12.9263 30.4075 13.217 31.2665C13.3983 31.8088 13.0666 32.2063 12.6458 32.496L12.6595 32.4893ZM14.6981 35.6592C14.7768 36.1442 14.6639 36.3733 14.3287 36.4339C13.9935 36.4946 13.3333 36.1544 14.014 34.7496C14.0309 34.709 14.0528 34.6706 14.079 34.6351C14.362 34.9203 14.5739 35.2662 14.6981 35.6457V35.6592ZM14.9957 32.7318C14.6312 33.067 14.2938 33.4297 13.9866 33.8165C13.6754 33.4797 13.3402 33.1698 13.0289 32.8666C13.5044 32.5297 14.0858 31.9234 13.371 30.9027C12.8305 30.1212 11.1477 30.1885 11.4555 31.6842C11.6348 32.071 11.8961 32.4156 12.2217 32.6948C11.9344 32.8464 11.6608 32.9474 11.5376 33.0317C11.3427 33.1361 10.8741 33.3483 10.4089 33.5841C10.1763 33.227 9.90952 32.9104 9.72482 32.6577C9.54012 32.4051 9.26991 32.1087 9.02364 31.819C9.67351 31.4821 9.99161 31.1688 9.85138 30.3166C9.81569 29.7111 9.28838 29.2487 8.67359 29.2839C8.23894 29.3087 7.85872 29.5804 7.69994 29.9797C7.47078 30.522 7.61101 30.869 8.16512 31.5933C7.89149 31.728 7.65548 31.8291 7.55971 31.8796C7.1903 32.0649 6.77644 32.2636 6.39677 32.4725C6.02053 31.9638 5.51431 31.4012 5.06282 30.8892C5.54509 30.5928 5.87345 30.2694 5.92476 29.8416C6.00685 29.1914 5.35355 28.2651 4.50529 28.4436C3.4176 28.6693 3.39366 29.5654 3.94093 30.3401C3.98881 30.4041 4.11195 30.549 4.28297 30.7444C3.94093 30.8993 3.61599 31.0139 3.46549 31.0812L2.80877 31.3507C2.68222 30.3401 2.34018 29.2487 2.22388 28.5851C1.50902 24.9672 6.86194 26.1395 11.7463 29.151C12.2457 29.4576 13.9388 30.5726 16.0526 31.8122C15.6626 32.1491 15.3069 32.4523 15.0093 32.7318H14.9957ZM1.37904 43.9022C1.32432 43.5922 1.58427 43.2284 2.30939 42.6894C2.39118 42.9221 2.44065 43.1646 2.45647 43.4103C2.45647 44.5152 1.50218 44.6264 1.37904 43.9022ZM4.68315 40.5975C4.40843 40.3747 4.1707 40.111 3.97855 39.816C3.87936 39.5499 3.9033 38.8054 4.60106 38.7751C5.0936 38.7549 5.47326 39.7183 5.1449 40.1226C5.00779 40.2909 4.85301 40.4444 4.68315 40.5807V40.5975ZM7.07743 44.0066C7.05007 44.8049 5.87345 44.9902 5.85977 44.0908C5.85977 43.7843 6.20181 43.4407 6.63962 43.1173C6.89943 43.354 7.05424 43.6819 7.07059 44.0302L7.07743 44.0066ZM9.06126 41.0692C9.06126 41.0692 9.02706 41.0927 9.00996 41.1062C8.53452 40.6683 8.18906 40.2674 8.21642 40.0013C8.30877 39.0311 9.1673 39.2299 9.42725 39.7689C9.65994 40.2308 9.50222 40.7912 9.06126 41.0692ZM11.4932 44.6264C11.4584 44.9408 11.1714 45.1679 10.8521 45.1337C10.5809 45.1046 10.3666 44.8936 10.3371 44.6264C10.3029 44.2895 10.5765 43.919 10.9767 43.5821C11.3187 43.9392 11.5684 44.3333 11.4932 44.6331V44.6264ZM13.1315 41.6216C12.3072 40.9479 12.0336 40.3516 12.5193 39.9676C12.7874 39.766 13.1682 39.8028 13.3915 40.0518C13.6754 40.3887 13.9285 40.9546 13.1315 41.6216ZM16.0936 44.4175C16.2173 44.7431 16.0691 45.1079 15.7516 45.2597C15.4095 45.4045 14.657 45.1856 15.0949 43.5013C15.6182 43.8382 16.0149 44.1346 16.0902 44.4175H16.0936ZM15.0367 42.009C14.9478 42.2515 14.8691 42.4806 14.7904 42.7029L14.1235 42.2987C13.9319 42.1842 13.7575 42.0696 13.5899 41.9618L13.6378 41.9248C14.4518 41.1769 14.0824 39.7487 13.1384 39.5667C11.9447 39.3343 11.5547 40.5975 11.9583 41.2005C12.1556 41.4829 12.3956 41.7339 12.6698 41.945L12.4201 42.0865C11.9612 42.3255 11.519 42.5945 11.0964 42.8916C11.0212 42.8141 10.9391 42.7433 10.8604 42.6692C10.4568 42.3324 9.91636 41.8911 9.42724 41.4767C9.81919 41.2517 10.0483 40.8278 10.019 40.382C10.019 39.7082 9.38278 39.0581 8.84919 39.0547C7.95305 39.0547 7.31686 39.8295 7.92911 40.7963C8.10045 41.0285 8.2978 41.2409 8.51742 41.4296C8.00094 41.726 7.31002 42.0831 6.71829 42.457C6.53017 42.2549 6.30442 42.0359 6.03421 41.7833C5.87003 41.6351 5.50063 41.3285 5.11754 40.9984C6.34888 39.9878 5.41169 38.5797 4.625 38.5292C4.0087 38.4882 3.47529 38.9469 3.4336 39.5539C3.43138 39.5862 3.4306 39.6186 3.43128 39.651C3.40392 40.0788 3.73912 40.4931 4.22482 40.9479C3.68439 41.305 3.05162 41.6216 2.49067 41.9585C2.49067 41.9281 2.46331 41.8945 2.44621 41.8608C1.31406 39.4825 1.09515 37.933 1.99814 37.3098C3.42786 36.3261 6.72171 36.7439 11.0006 38.1957C12.6527 38.7583 14.3595 39.3242 16.0902 39.8396C15.668 40.5271 15.3151 41.2537 15.0367 42.009ZM31.3178 39.368C29.0877 42.612 22.6916 41.0523 19.5106 40.318C18.9462 40.1832 18.0501 39.9036 16.959 39.5533C17.3117 38.9738 17.7109 38.423 18.1527 37.906C19.2595 36.6769 20.5784 35.6505 22.0485 34.8743C23.5843 35.5008 25.0003 35.9084 26.0504 35.8849C28.5062 35.7973 29.269 34.0625 27.0491 33.0754C26.0983 32.651 24.1521 33.1091 22.0656 34.2612C21.5218 34.0422 20.9403 33.7829 20.311 33.4729C19.1275 32.8902 18.0261 32.2939 16.9795 31.6943C18.3044 30.6115 19.7531 29.6845 21.296 28.9321C21.9478 28.635 22.6145 28.3708 23.2935 28.1404C23.7279 28.5009 24.1486 28.8344 24.5454 29.1274C25.6844 29.9561 27.8222 31.0105 28.3865 29.818C29.1561 28.1876 27.0184 27.241 25.7289 27.268C24.9575 27.2905 24.1916 27.4036 23.4475 27.6048C22.6129 26.9008 21.662 26.0149 20.5572 24.9268C20.246 24.6202 19.473 23.8758 18.4674 22.9461C19.5625 22.4196 20.7354 22.0671 21.9425 21.9018C22.996 21.7556 24.0647 21.7488 25.12 21.8816C26.3651 24.536 27.1483 25.2502 28.2463 25.294C29.6144 25.3714 30.1343 23.9465 28.9782 22.7877C28.3728 22.1746 27.1039 21.7266 25.5818 21.5211C25.0311 20.3758 24.436 19.0317 23.8374 17.691C24.1555 17.691 24.4873 17.7112 24.8396 17.7449C28.7115 18.0919 31.4615 19.4393 33.8079 21.8546C33.7189 21.9557 33.63 22.05 33.5411 22.1544C33.1204 22.653 31.222 24.3272 31.3623 26.8233C31.4512 28.4133 32.5526 29.0365 33.7052 29.6091C32.5594 30.1784 31.1981 31.0711 31.3452 33.1664C31.4478 34.6722 32.6039 35.4571 33.7942 36.1981C33.5205 36.3733 33.2366 36.5586 32.9493 36.7708C31.8719 37.5692 31.4136 38.4821 31.3212 39.368H31.3178ZM22.7702 34.5138C23.7582 34.0294 24.8124 33.689 25.8999 33.5033C26.7755 33.3921 28.0376 33.6852 27.9282 34.4161C27.8187 35.1471 26.3001 35.7838 22.7702 34.5138ZM23.8716 27.9484C25.4381 27.5139 26.413 27.6116 27.2612 28.0091C27.8632 28.2785 28.6601 29.3565 27.7914 29.6294C26.8542 29.9191 25.6536 29.3902 23.8716 27.945V27.9484ZM25.8212 21.9826C27.5314 22.3195 28.7867 22.9932 29.0809 23.7175C29.6555 25.1592 27.7811 25.0885 26.9431 23.9431C26.5176 23.3195 26.1425 22.664 25.8212 21.9826ZM33.2572 23.4143C33.4692 23.1414 33.6881 22.8955 33.9002 22.6429C33.9002 23.8522 33.9002 26.318 33.9002 29.215C31.954 28.2044 30.75 26.6414 33.2435 23.4143H33.2572ZM33.9276 35.7468C32.7783 35.0191 31.9232 34.3589 31.9643 32.7655C32.0019 31.2497 32.8912 30.5658 33.9173 30.0201C33.9173 31.856 33.9173 33.8334 33.9173 35.7468H33.9276ZM31.8651 39.3444C31.913 38.0408 32.8467 37.3233 33.9173 36.6495C33.9173 39.2501 33.9173 41.6755 33.9173 43.4204C32.922 42.5244 31.7932 41.1635 31.8651 39.3781V39.3444ZM29.7034 13.4533C29.1713 13.1157 28.5814 12.876 27.9624 12.7459C28.0547 12.2709 28.1197 11.769 28.171 11.3075C28.3988 11.3323 28.6289 11.3267 28.8551 11.2907C30.0215 11.0245 30.3464 9.21559 29.1082 9.04716C28.0821 8.91242 27.7948 9.29644 27.6546 10.7719C27.3125 10.7315 26.9705 10.6776 26.6729 10.6405C26.3753 10.6035 26.112 10.5832 25.8554 10.5664C25.8999 10.2295 25.9341 9.8691 25.958 9.43455C25.958 9.22907 25.9786 9.04042 25.9888 8.86526C28.1505 9.01011 28.1574 6.84409 27.2783 6.47018C26.1188 5.9851 25.6057 6.94178 25.5339 7.80078C25.5339 7.9052 25.5339 8.04668 25.5065 8.21848C25.014 8.16122 24.4804 8.08037 23.9468 8.02311C24.072 7.35473 24.1587 6.67993 24.2068 6.00194C26.5121 6.24448 26.4848 3.74497 25.3389 3.58665C24.3128 3.43843 23.9366 3.92351 23.6937 5.39896C23.2559 5.34169 22.801 5.27432 22.3598 5.22716C22.8728 3.78203 23.1259 1.99329 24.0426 1.52169C25.5168 0.760383 29.2553 3.79887 31.2562 8.39702C33.4658 13.4701 33.8934 17.6203 33.9378 19.9109C33.3016 17.7146 31.9232 14.8243 29.7034 13.4533ZM28.2189 10.8123C28.26 10.4047 28.2907 10.0678 28.325 9.87921C28.4652 9.10106 29.6247 9.00337 29.5666 9.97353C29.5221 10.6742 28.9201 10.8292 28.2189 10.8123H28.2189ZM26.0401 8.26565C26.1496 7.02263 26.3445 6.6824 27.0013 6.63861C27.3228 6.61503 27.9384 7.36286 27.2167 8.07363C27.0184 8.26901 26.584 8.29933 26.0401 8.26565H26.0401ZM24.2615 5.45959C24.2615 5.26084 24.2923 5.08568 24.306 4.94756C24.436 3.80897 25.5442 3.54959 25.7426 4.25363C25.9102 4.84987 25.5442 5.55728 24.5728 5.48654L24.2615 5.45959H24.2615ZM30.7295 49.1269C29.7923 49.0157 29.4776 48.059 30.7295 47.9344C31.4629 47.8357 32.2004 48.0857 32.7167 48.6081C32.1293 48.9894 31.4316 49.1716 30.7295 49.1269ZM37.7242 47.9344C38.959 48.059 38.6443 49.0157 37.7071 49.1269C37.0104 49.1706 36.318 48.9909 35.7335 48.6148C36.251 48.0919 36.9897 47.8419 37.7242 47.9411V47.9344ZM34.9879 48.6957C34.5572 49.4667 34.2962 50.3183 34.2217 51.1952C34.1522 50.3155 33.8946 49.4603 33.4658 48.6856C33.7914 48.3471 34.05 47.9518 34.2286 47.52C34.4078 47.9533 34.6677 48.3497 34.9947 48.6889L34.9879 48.6957ZM37.1838 8.39702C39.1676 3.79887 42.9061 0.760384 44.3666 1.51158C45.2867 1.98319 45.5398 3.77192 46.0529 5.21705C45.6082 5.26421 45.1533 5.33159 44.7155 5.38885C44.4727 3.9134 44.1033 3.42832 43.0703 3.57654C41.9279 3.73487 41.9005 6.23437 44.2059 5.99183C44.2539 6.66983 44.3407 7.34462 44.4658 8.013C43.9425 8.07026 43.3987 8.15111 42.9061 8.20838C42.9061 8.03658 42.8856 7.8951 42.8753 7.79067C42.8069 6.93167 42.2939 5.97499 41.1344 6.46007C40.2553 6.82725 40.2622 9 42.4204 8.85515C42.4204 9.03032 42.4444 9.21896 42.4546 9.42445C42.4786 9.859 42.5094 10.2329 42.5572 10.5563C42.2973 10.5731 42.0237 10.5967 41.7363 10.6304C41.449 10.6641 41.107 10.7214 40.7547 10.7618C40.6145 9.28633 40.3237 8.90231 39.3044 9.03706C38.0663 9.20549 38.3878 11.0144 39.5541 11.2805C39.7804 11.3162 40.0104 11.3218 40.2382 11.2974C40.2895 11.7589 40.3545 12.2608 40.4434 12.7358C39.8257 12.8666 39.2371 13.1062 38.7059 13.4432C36.4997 14.8243 35.1247 17.7146 34.4919 19.9109C34.5364 17.6203 34.9639 13.4701 37.1735 8.39702H37.1838ZM44.1682 5.45959L43.8536 5.48654C42.8822 5.55728 42.5196 4.84987 42.6872 4.25363C42.8822 3.54959 43.9972 3.80897 44.1238 4.94756C44.1238 5.08568 44.1511 5.26084 44.1682 5.45959ZM42.3828 8.26565C41.8389 8.29933 41.4046 8.26565 41.2062 8.07364C40.481 7.36286 41.1036 6.61503 41.4217 6.63861C42.0784 6.6824 42.2733 7.02263 42.3828 8.26565ZM40.204 10.8123C39.5028 10.8292 38.8974 10.6742 38.8564 9.97353C38.7948 9.00337 39.9577 9.10106 40.1014 9.87921C40.1322 10.0678 40.1629 10.4047 40.204 10.8123ZM34.5227 22.6429C34.7382 22.8955 34.9571 23.1414 35.1658 23.4143C37.6626 26.6414 36.4587 28.2112 34.5125 29.215C34.5125 26.318 34.5125 23.8522 34.5125 22.6429H34.5227ZM36.4552 32.7655C36.4929 34.3589 35.6412 35.0191 34.4885 35.7467C34.4885 33.8334 34.4885 31.856 34.4885 30.0201C35.5146 30.5658 36.4074 31.253 36.445 32.7655H36.4552ZM34.4919 43.4036C34.4919 41.6587 34.4919 39.2333 34.4919 36.6327C35.5557 37.3064 36.4894 38.0408 36.5442 39.3276C36.6092 41.1298 35.477 42.4907 34.4919 43.3699V43.4036ZM48.9123 40.3247C45.728 41.0759 39.3352 42.6187 37.1051 39.3747C36.9699 38.3176 36.376 37.3702 35.477 36.7775C35.1897 36.5653 34.9092 36.3801 34.6322 36.2049C35.8259 35.4672 36.9751 34.6823 37.0812 33.1731C37.2317 31.0779 35.8669 30.1852 34.7211 29.6159C35.8772 29.0432 36.9751 28.42 37.0641 26.83C37.2077 24.3339 35.306 22.6597 34.8853 22.1612L34.6219 21.8613C36.9615 19.4393 39.7115 18.0919 43.5799 17.7348C43.922 17.7011 44.264 17.6876 44.5821 17.6809C43.987 19.0283 43.3918 20.3758 42.8377 21.511C41.3156 21.7165 40.0501 22.1645 39.4447 22.7776C38.2886 23.9431 38.8187 25.3613 40.1766 25.2839C41.2712 25.2232 42.0579 24.5259 43.3029 21.8715C44.3571 21.7386 45.4246 21.7454 46.477 21.8917C47.6852 22.0571 48.8592 22.4095 49.9556 22.9359C48.9294 23.8657 48.177 24.6202 47.8623 24.9167C46.7575 26.0047 45.81 26.8907 44.9755 27.5947C44.2313 27.3935 43.4654 27.2804 42.6941 27.2579C41.3875 27.2309 39.2737 28.1775 40.033 29.8079C40.5974 31.0004 42.7351 29.946 43.8741 29.1173C44.2743 28.8243 44.695 28.4908 45.126 28.1303C45.8064 28.3601 46.4742 28.6243 47.1269 28.9219C48.67 29.6759 50.1196 30.6028 51.4469 31.6842C50.3934 32.2838 49.2954 32.8801 48.1086 33.4628C47.4792 33.7727 46.9012 34.0321 46.3573 34.2511C44.2709 33.099 42.3247 32.6409 41.3704 33.0653C39.1539 34.0523 39.9167 35.7872 42.3691 35.8748C43.4192 35.9118 44.8387 35.5042 46.3744 34.8642C47.8439 35.6413 49.1627 36.6676 50.2703 37.8959C50.7132 38.4127 51.1135 38.9636 51.4674 39.5432C50.3729 39.88 49.4767 40.1731 48.9124 40.3078L48.9123 40.3247ZM42.6051 21.9826C42.2838 22.664 41.9087 23.3195 41.4832 23.9431C40.6452 25.0885 38.7709 25.1592 39.3455 23.7175C39.6396 22.9831 40.9052 22.306 42.6051 21.9826ZM44.5547 27.945C42.7727 29.3868 41.5722 29.9157 40.635 29.6294C39.7662 29.3565 40.5631 28.2819 41.1617 28.0091C42.0134 27.625 42.9882 27.5139 44.5547 27.9484V27.945ZM45.6561 34.5138C42.1263 35.7838 40.6076 35.1134 40.4982 34.4161C40.3887 33.7188 41.6508 33.4056 42.523 33.5033C43.6117 33.6883 44.6672 34.0288 45.6561 34.5138ZM52.6679 45.2496C52.3504 45.0978 52.2022 44.733 52.3259 44.4074C52.4011 44.1245 52.7979 43.8247 53.3178 43.4912C53.759 45.1755 53.0168 45.3944 52.6645 45.2496H52.6679ZM55.2845 41.6115C54.4876 40.9378 54.7441 40.3718 55.0246 40.0417C55.2479 39.7927 55.6287 39.7559 55.8968 39.9575C56.3859 40.3415 56.1089 40.9378 55.2846 41.6115H55.2845ZM58.0824 44.6163C58.0477 44.9307 57.7607 45.1578 57.4414 45.1236C57.1701 45.0945 56.9559 44.8835 56.9263 44.6163C56.8477 44.3165 57.111 43.9224 57.4428 43.5653C57.843 43.9021 58.1269 44.2558 58.0824 44.6096L58.0824 44.6163ZM59.4061 41.0961L59.3582 41.059C58.9173 40.781 58.7596 40.2207 58.9923 39.7588C59.2488 39.2198 60.1073 39.021 60.2031 39.9912C60.2304 40.2573 59.8816 40.6649 59.4061 41.0961ZM62.5666 44.1043C62.5666 45.0037 61.3763 44.8184 61.3489 44.0201C61.3714 43.6787 61.5285 43.3595 61.7867 43.1307C62.2348 43.4676 62.5734 43.8045 62.5666 44.1043ZM63.7329 40.5942C63.5649 40.457 63.4114 40.3035 63.2746 40.136C62.9326 39.715 63.3225 38.7515 63.8184 38.7886C64.5025 38.8189 64.5401 39.5634 64.4375 39.8295C64.2475 40.1261 64.0095 40.3901 63.7329 40.611V40.5942ZM67.0405 43.9156C66.9173 44.6399 65.9562 44.5287 65.9664 43.4238C65.9793 43.178 66.0276 42.9353 66.1101 42.7029C66.8318 43.2284 67.0918 43.6057 67.0405 43.9156ZM65.9733 41.8641C65.9562 41.8978 65.9425 41.9315 65.9288 41.9618C65.3679 41.625 64.7351 41.2881 64.1947 40.9512C64.677 40.4965 65.0156 40.0821 64.9848 39.6543C64.9956 39.0461 64.5038 38.5443 63.8861 38.5336C63.8544 38.5331 63.8227 38.5338 63.7911 38.536C63.0044 38.5865 62.0809 39.9878 63.2951 41.0051C62.912 41.342 62.5426 41.6418 62.3853 41.79C62.1151 42.0427 61.8893 42.2616 61.7012 42.4638C61.1095 42.0898 60.422 41.7328 59.9055 41.4363C60.1242 41.2477 60.3204 41.0353 60.4904 40.803C61.1095 39.8362 60.4904 39.0514 59.5771 39.0615C59.0401 39.0615 58.4005 39.7352 58.4039 40.3887C58.373 40.8349 58.6025 41.2596 58.9957 41.4835C58.5066 41.8978 57.9696 42.3223 57.5625 42.676C57.4804 42.7501 57.4018 42.8208 57.3231 42.8983C56.9023 42.6004 56.4612 42.3314 56.0028 42.0932C55.9105 42.046 55.8318 41.9989 55.7497 41.9517C56.026 41.7418 56.2672 41.4906 56.4646 41.2073C56.8648 40.6043 56.4646 39.3411 55.2845 39.5735C54.3371 39.7588 53.9711 41.1871 54.7852 41.9315C54.7998 41.9455 54.8158 41.9579 54.833 41.9686C54.6643 42.0831 54.4864 42.1954 54.2995 42.3054L53.6154 42.7097C53.5401 42.4873 53.4615 42.2583 53.3725 42.0157C53.0939 41.2616 52.7411 40.5362 52.319 39.8497C54.0498 39.3343 55.7565 38.7684 57.4052 38.2058C61.6841 36.754 64.9848 36.3363 66.4111 37.3199C67.3141 37.9431 67.0952 39.4926 65.963 41.8608L65.9733 41.8641ZM105.007 17.3979H104.354L99.6984 30.485C99.3564 31.4585 98.8468 31.9604 98.173 31.9604H97.6223V32.5971H101.874V31.9604H101.214C100.147 31.9604 100.112 31.2564 100.376 30.5288L101.32 27.8339H106.57L108.178 31.9436H106.508V32.5803H112.323V31.9604H110.613L105.007 17.3979ZM101.566 27.1669L103.81 20.7868L106.32 27.1635L101.566 27.1669ZM151.771 27.524C151.531 30.9128 150.303 31.9638 146.708 31.9638H145.077V18.0346H146.698V17.3979H141.188V18.0346H142.751V31.9604H141.188V32.5971H152.308V27.524H151.771ZM171.452 20.2175C171.452 18.6847 173.011 17.8594 174.53 17.8594C177.383 17.8594 178.402 19.5067 178.977 22.0601H179.555V17.4182H179.018C178.953 18.0515 178.699 18.2367 178.374 18.2367C177.643 18.2367 176.808 17.2531 174.455 17.2531C172.013 17.2362 169.598 18.8667 169.598 21.4605C169.598 26.473 178.426 25.1862 178.426 29.3666C178.426 31.2328 176.716 32.2097 175.046 32.2097C171.852 32.2097 170.354 29.7473 169.967 27.4633H169.416V32.5971H169.94C170.053 32.0379 170.388 31.9638 170.624 31.9638C171.65 31.9638 172.779 32.8531 175.098 32.8531C178.094 32.8531 180.372 30.8016 180.372 28.2112C180.372 22.7102 171.458 24.8965 171.458 20.2175H171.452ZM165.093 27.524C164.854 30.9128 163.629 31.9638 160.031 31.9638H158.399V25.0918H160.069C161.013 25.0918 161.703 25.5028 161.703 27.2612H162.319V22.2993H161.703C161.703 24.0611 161.019 24.4686 160.069 24.4686H158.399V18.0346H161.573C163.403 18.0346 164.337 19.1227 164.618 21.6356H165.151V17.3979H154.51V18.0346H156.073V31.9604H154.51V32.5971H165.63V27.524H165.093ZM127.441 18.0346H129.008V31.9604H127.441V32.5971H132.914V31.9604H131.33V25.0918H132.999C133.94 25.0918 134.631 25.5028 134.631 27.2612H135.243V22.2993H134.631C134.631 24.0611 133.947 24.4686 132.999 24.4686H131.327V18.0346H134.258C136.088 18.0346 137.022 19.1227 137.302 21.6356H137.836V17.3979H127.441V18.0346ZM113.688 18.0346H115.251V31.9604H113.688V32.5971H119.161V31.9604H117.58V25.0918H119.249C120.193 25.0918 120.884 25.5028 120.884 27.2612H121.5V22.2993H120.884C120.884 24.0611 120.2 24.4686 119.249 24.4686H117.58V18.0346H120.512C122.345 18.0346 123.275 19.1227 123.559 21.6356H124.106V17.3979H113.688V18.0346ZM94.4857 28.0663C94.089 25.5095 92.7756 24.7988 91.0825 24.6405C93.1518 24.2261 94.862 23.1448 94.862 21.0562C94.862 17.8493 91.4416 17.3845 88.9173 17.3845H83.4037V18.0178H84.9668V31.9402H83.4037V32.5769H88.9242V31.9369H87.2927V25.139H89.0918C91.4006 25.139 91.616 25.998 91.8897 27.716C92.0367 28.6356 92.0538 29.0062 92.2317 30.0942C92.4917 31.7785 93.3023 33.3011 96.5209 32.5803V31.9402C94.4687 32.4354 94.7457 29.7068 94.4926 28.0663H94.4857ZM88.9002 24.3979H87.2961V18.0178H88.9173C90.6515 18.0178 92.1325 18.267 92.1325 21.0327C92.1325 23.7983 90.6686 24.4013 88.9002 24.4013L88.9002 24.3979ZM113.554 43.1947C113.507 44.3603 113.212 44.7443 111.961 44.7443H111.3V42.4334H111.985C112.258 42.4334 112.378 42.5379 112.378 43.1914H112.679V41.369H112.378C112.378 42.0427 112.258 42.1269 111.985 42.1269H111.3V39.9676H112.501C113.12 39.9676 113.298 40.3617 113.39 41.2241H113.691V39.651H109.85V39.9642H110.397V44.7409H109.85V45.0542H113.845V43.1914L113.554 43.1947ZM144.338 43.1947C144.29 44.3603 143.996 44.7443 142.748 44.7443H142.087V42.4334H142.772C143.045 42.4334 143.161 42.5379 143.161 43.1914H143.466V41.369H143.161C143.161 42.0427 143.045 42.1269 142.772 42.1269H142.087V39.9676H143.288C143.907 39.9676 144.085 40.3617 144.174 41.2241H144.478V39.651H140.637V39.9642H141.184V44.7409H140.637V45.0542H144.646V43.1914L144.338 43.1947ZM123.398 39.9238C123.47 39.9238 123.556 39.8767 123.58 39.6543H123.857V41.3386H123.552C123.412 40.4729 123.039 39.8531 122.054 39.8531C121.538 39.8531 121.028 40.1192 121.028 40.6346C121.028 41.3858 121.712 41.6452 122.461 41.8877C123.289 42.1572 124.144 42.4739 124.144 43.5047C124.144 44.4378 123.316 45.1687 122.256 45.1687C121.394 45.1687 120.929 44.8319 120.693 44.8319C120.628 44.8319 120.536 44.8858 120.501 45.0542H120.224V43.1914H120.529C120.587 43.636 120.888 44.8757 122.239 44.8757C122.803 44.8757 123.374 44.5557 123.374 43.9325C123.374 43.3093 122.69 42.9724 121.965 42.7029C121.141 42.3964 120.289 42.0292 120.289 41.0826C120.289 40.136 121.179 39.5634 122.041 39.5634C122.824 39.5634 123.159 39.9339 123.409 39.9339L123.398 39.9238ZM149.291 39.9238C149.363 39.9238 149.448 39.8767 149.472 39.6543H149.759V41.3386H149.455C149.315 40.4729 148.942 39.8531 147.957 39.8531C147.44 39.8531 146.931 40.1192 146.931 40.6346C146.931 41.3858 147.615 41.6452 148.364 41.8877C149.192 42.1572 150.047 42.4739 150.047 43.5047C150.047 44.4378 149.219 45.1687 148.159 45.1687C147.297 45.1687 146.832 44.8319 146.596 44.8319C146.531 44.8319 146.438 44.8858 146.404 45.0542H146.13V43.1914H146.431C146.493 43.636 146.791 44.8757 148.142 44.8757C148.706 44.8757 149.277 44.5557 149.277 43.9325C149.277 43.3093 148.593 42.9724 147.868 42.7029C147.044 42.3964 146.192 42.0292 146.192 41.0826C146.192 40.136 147.081 39.5634 147.943 39.5634C148.726 39.5634 149.062 39.9339 149.311 39.9339L149.291 39.9238ZM170.583 39.9238C170.655 39.9238 170.74 39.8767 170.764 39.6543H171.038V41.3386H170.737C170.596 40.4729 170.224 39.8531 169.239 39.8531C168.722 39.8531 168.212 40.1192 168.212 40.6346C168.212 41.3858 168.897 41.6452 169.646 41.8877C170.473 42.1572 171.328 42.4739 171.328 43.5047C171.328 44.4378 170.497 45.1687 169.44 45.1687C168.575 45.1687 168.113 44.8319 167.877 44.8319C167.812 44.8319 167.72 44.8858 167.686 45.0542H167.409V43.1914H167.713C167.771 43.636 168.055 44.8757 169.423 44.8757C169.988 44.8757 170.562 44.5557 170.562 43.9325C170.562 43.3093 169.878 42.9724 169.153 42.7029C168.329 42.3964 167.477 42.0292 167.477 41.0826C167.477 40.136 168.366 39.5634 169.228 39.5634C170.012 39.5634 170.347 39.9339 170.596 39.9339L170.583 39.9238ZM100.868 39.5533C99.3564 39.5533 98.4397 40.8131 98.4397 42.3694C98.4397 43.9257 99.3564 45.1822 100.868 45.1822C102.38 45.1822 103.297 43.9224 103.297 42.3694C103.297 40.8165 102.38 39.5533 100.868 39.5533ZM100.868 44.8622C99.8421 44.8622 99.4453 43.7472 99.4453 42.3694C99.4453 40.9917 99.8284 39.8733 100.868 39.8733C101.908 39.8733 102.291 40.9917 102.291 42.3694C102.291 43.7472 101.908 44.8622 100.868 44.8622ZM153.447 39.5533C151.935 39.5533 151.018 40.8131 151.018 42.3694C151.018 43.9257 151.935 45.1822 153.447 45.1822C154.958 45.1822 155.875 43.9224 155.875 42.3694C155.875 40.8165 154.958 39.5533 153.447 39.5533ZM153.447 44.8622C152.42 44.8622 152.024 43.7472 152.024 42.3694C152.024 40.9917 152.41 39.8733 153.447 39.8733C154.483 39.8733 154.869 40.9917 154.869 42.3694C154.869 43.7472 154.483 44.8622 153.447 44.8622ZM95.5529 39.9676H96.2302V42.1269H93.829V39.9676H94.5063V39.6543H92.2488V39.9676H92.926V44.7443H92.2488V45.0576H94.5063V44.7443H93.829V42.4334H96.2302V44.7443H95.5529V45.0576H97.8104V44.7443H97.1332V39.9676H97.8104V39.6543H95.5529V39.9676ZM104.032 41.369H104.34C104.432 40.483 104.603 39.9676 105.277 39.9676H105.862V44.7443H105.178V45.0576H107.435V44.7443H106.751V39.9676H107.346C108.031 39.9676 108.195 40.483 108.287 41.369H108.591V39.651H104.032V41.369ZM161.885 41.369H162.189C162.282 40.483 162.453 39.9676 163.13 39.9676H163.711V44.7443H163.027V45.0576H165.285V44.7443H164.601V39.9676H165.182C165.866 39.9676 166.03 40.483 166.123 41.369H166.427V39.651H161.885V41.369ZM138.027 42.228C138.759 42.0225 139.16 41.5879 139.16 40.9849C139.16 40.1057 138.448 39.6543 137.039 39.6543H135.069V39.9676H135.613V44.7443H135.069V45.0576H137.104V44.7443H136.533V42.4334H137.104C137.867 42.4334 137.962 42.6861 138.038 43.3194C138.062 43.5282 138.089 43.7741 138.154 44.1514C138.219 44.5287 138.393 45.1216 139.18 45.1216C139.369 45.1165 139.557 45.0917 139.741 45.0475V44.7342C139.674 44.7544 139.605 44.7657 139.536 44.7679C138.677 44.7679 139.587 42.5446 138.031 42.228H138.027ZM137.036 42.1269H136.519V39.9676H137.042C137.634 39.9676 138.12 40.0451 138.12 40.9782C138.12 41.9888 137.542 42.1303 137.036 42.1303L137.036 42.1269ZM159.679 42.228C160.411 42.0225 160.807 41.5879 160.807 40.9849C160.807 40.1057 160.096 39.6543 158.687 39.6543H156.717V39.9676H157.284V44.7443H156.737V45.0576H158.755V44.7443H158.184V42.4334H158.769C159.535 42.4334 159.627 42.6861 159.703 43.3194C159.726 43.5282 159.754 43.7741 159.819 44.1514C159.884 44.5287 160.058 45.1216 160.845 45.1216C161.029 45.1131 161.211 45.086 161.389 45.0407V44.7275C161.323 44.7479 161.256 44.7592 161.187 44.7612C160.325 44.7612 161.235 42.5379 159.682 42.2212L159.679 42.228ZM158.683 42.1202H158.167V39.9609H158.69C159.282 39.9609 159.768 40.0384 159.768 40.9715C159.768 41.982 159.189 42.1235 158.683 42.1235L158.683 42.1202ZM116.653 44.7443V39.9676H117.221V39.651H115.213V39.9642H115.761V44.7409H115.213V45.0542H119.215V43.1914H118.907C118.86 44.3569 118.565 44.7409 117.317 44.7409L116.653 44.7443ZM132.548 42.4368V42.1269H130.704V42.4368H131.409C131.141 42.8805 130.842 43.3059 130.516 43.7101L129.401 41.9349C130.037 41.5374 130.383 41.0725 130.383 40.4931C130.383 39.9137 129.904 39.5533 129.258 39.5533C128.605 39.5099 128.041 39.9954 127.997 40.6376C127.994 40.6803 127.994 40.7232 127.995 40.766C128.059 41.2265 128.226 41.6673 128.485 42.0562C128.016 42.329 127.034 42.8747 127.075 43.9055C127.103 44.6635 127.701 45.1822 128.556 45.1822C129.13 45.1773 129.681 44.9596 130.099 44.5725C130.39 44.9547 130.845 45.1804 131.33 45.1822C132.151 45.1822 132.401 44.5085 132.356 43.8348H132.083C132.021 44.3603 131.833 44.6028 131.498 44.6028C131.231 44.6028 130.964 44.3738 130.698 43.9897C131.04 43.5855 131.498 42.9387 131.84 42.4435L132.548 42.4368ZM129.37 39.9002C129.692 39.8692 129.978 40.1008 130.01 40.4174C130.014 40.4628 130.013 40.5086 130.007 40.5538C129.965 41.0331 129.674 41.4568 129.237 41.6721C128.996 41.3401 128.855 40.9478 128.83 40.5403C128.809 40.2176 129.056 39.9387 129.384 39.9171L129.37 39.9002ZM128.987 44.7039C128.387 44.6522 127.935 44.1444 127.961 43.5518C127.976 43.0599 128.244 42.6093 128.673 42.356L129.907 44.3098C129.664 44.5496 129.338 44.6903 128.994 44.7039H128.987Z" fill="#ffffff"></path>
</svg>